<?xml version="1.0"?>
<svg xmlns="http://www.w3.org/2000/svg" height="512px" viewBox="0 0 496 496.00327" width="512px" class=""><g><path d="m64 400.003906c-17.644531 0-32 14.351563-32 32 0 17.648438 14.355469 32 32 32 17.648438 0 32-14.351562 32-32 0-17.648437-14.351562-32-32-32zm0 48c-8.824219 0-16-7.175781-16-16 0-8.824218 7.175781-16 16-16s16 7.175782 16 16c0 8.824219-7.175781 16-16 16zm0 0" data-original="#000000" class="active-path" data-old_color="#000000" fill="#1F4286"/><path d="m487.386719 68.921875-4.59375-11.023437-82.792969 82.792968-44.6875-44.6875 82.792969-82.792968-11.023438-4.601563c-14.601562-6.085937-29.96875-9.007813-45.960937-8.5664062-32.0625.8085932-62.703125 16.4335932-83.542969 42.0390622-3.457031-1.320312-7.136719-2.078125-10.953125-2.078125-16.878906 0-30.625 13.734375-30.625 30.632813 0 8.175781 3.1875 15.863281 8.96875 21.65625l7.722656 7.71875c-.449218 3.886719-.671875 7.792969-.691406 11.664062-.054688 17.703125-8.109375 35.679688-22.101562 49.320313l-230.496094 224.71875c-12.328125 12.023437-19.402344 28.800781-19.402344 46.023437 0 35.433594 28.832031 64.265625 64.265625 64.265625 17.222656 0 34.007813-7.082031 46.023437-19.417968l224.984376-230.910157c13.289062-13.632812 31.289062-21.335937 50.679687-21.6875 8.90625-.167969 17.839844-1.480469 26.542969-3.90625 47.847656-13.304687 82.167968-56.503906 83.464844-105.046875.425781-15.9375-2.457032-31.449218-8.574219-46.113281zm-105.863281-52.886719c9.558593-.191406 18.78125.886719 27.78125 3.34375l-65.304688 65.3125-33.367188-33.359375c17.808594-21.472656 43.777344-34.609375 70.890626-35.296875zm-282.691407 449.382813c-9.023437 9.273437-21.628906 14.585937-34.566406 14.585937-26.617187 0-48.265625-21.65625-48.265625-48.273437 0-12.925781 5.3125-25.527344 14.570312-34.558594l33.664063-32.816406 67.398437 67.398437zm224.992188-230.902344-181.023438 185.777344-67.109375-67.113281 185.382813-180.738282c16.144531-15.734375 25.800781-36.414062 26.832031-57.222656l17.253906 17.25c-1.597656 1-3.101562 2.160156-4.46875 3.519531l-4.691406 4.695313c-5.160156 5.160156-8 12.015625-8 19.320312 0 7.304688 2.839844 14.160156 8 19.3125l20.691406 20.6875c5.167969 5.160156 12.023438 8 19.308594 8 7.289062 0 14.152344-2.839844 19.3125-8l4.6875-4.679687c1.363281-1.359375 2.539062-2.855469 3.570312-4.433594l17.414063 17.417969c-21.839844 1.503906-42 10.648437-57.160156 26.207031zm-11.824219-87.199219c4.289062-4.28125 11.730469-4.273437 16 0l20.691406 20.6875c2.140625 2.136719 3.308594 4.976563 3.308594 8 0 3.023438-1.167969 5.863282-3.308594 8l-4.691406 4.679688c-4.277344 4.28125-11.71875 4.28125-16 0l-20.6875-20.679688c-2.144531-2.136718-3.3125-4.976562-3.3125-8 0-3.023437 1.167969-5.863281 3.3125-8zm96.210938 57.351563c-2.242188.625-4.519532.992187-6.792969 1.4375l-33.777344-33.773438c-.789063-5.898437-3.367187-11.367187-7.640625-15.640625l-20.6875-20.6875c-4.199219-4.191406-9.679688-6.59375-15.375-7.375l-47.65625-47.648437c-2.757812-2.769531-4.28125-6.441407-4.28125-10.34375 0-8.074219 6.5625-14.632813 14.625-14.632813 3.847656 0 7.617188 1.558594 10.34375 4.289063l103.03125 103.023437 76.617188-76.617187c2.480468 9.039062 3.601562 18.382812 3.34375 27.910156-1.101563 41.585937-30.597657 78.617187-71.75 90.058594zm0 0" data-original="#000000" class="active-path" data-old_color="#000000" fill="#1F4286"/><path d="m255.035156 216.003906c-6.578125 0-13.007812 2.664063-17.65625 7.3125l-62.066406 62.0625c-4.648438 4.648438-7.3125 11.082032-7.3125 17.65625 0 13.769532 11.203125 24.96875 24.96875 24.96875 6.578125 0 13.007812-2.664062 17.65625-7.3125l62.066406-62.0625c4.71875-4.714844 7.308594-10.984375 7.308594-17.65625 0-13.769531-11.199219-24.96875-24.964844-24.96875zm6.34375 31.3125-62.066406 62.0625c-1.671875 1.671875-3.984375 2.625-6.34375 2.625-4.941406 0-8.96875-4.023437-8.96875-8.96875 0-2.359375.953125-4.671875 2.625-6.34375l62.066406-62.0625c1.671875-1.664062 3.980469-2.625 6.34375-2.625 4.941406 0 8.964844 4.023438 8.964844 8.96875 0 2.398438-.925781 4.648438-2.621094 6.34375zm0 0" data-original="#000000" class="active-path" data-old_color="#000000" fill="#1F4286"/></g> </svg>
